<svg width="100" height="86" viewBox="0 0 100 86" fill="none" xmlns="http://www.w3.org/2000/svg">
<path d="M23.265 2.98428C24.3391 1.13674 26.3149 8.87048e-09 28.452 2.32877e-08L71.548 3.1402e-07C73.6851 3.28437e-07 75.6609 1.13674 76.7351 2.98428L98.2467 39.9843C99.3306 41.8487 99.3306 44.1513 98.2467 46.0157L76.7351 83.0157C75.6609 84.8633 73.6851 86 71.548 86L28.452 86C26.3149 86 24.3391 84.8633 23.265 83.0157L1.75333 46.0157C0.669388 44.1513 0.669385 41.8487 1.75333 39.9843L23.265 2.98428Z" fill="#1A1615"/>
<g clip-path="url(#clip0)">
<path fill-rule="evenodd" clip-rule="evenodd" d="M56.9334 27.8411C56.9384 27.8436 56.9433 27.846 56.9483 27.8484L56.9334 27.8411Z" fill="black"/>
<path fill-rule="evenodd" clip-rule="evenodd" d="M56.9334 27.8411C56.9384 27.8436 56.9433 27.846 56.9483 27.8484L56.9334 27.8411Z" fill="black"/>
<path d="M45.4891 54.2396L46.4001 54.2691C46.4218 54.2699 46.4413 54.2845 46.4482 54.3052L46.8437 55.4975C46.8471 55.5076 46.8507 55.5176 46.8544 55.5275C46.9945 55.8968 47.4009 56.0928 47.7776 55.9666C48.1644 55.837 48.3734 55.417 48.2445 55.0284L47.8489 53.8364C47.6475 53.229 47.0845 52.807 46.4474 52.7863C45.5483 52.7572 45.4933 52.7848 45.4857 52.7089L44.9284 46.9945C44.8536 46.2299 44.2257 45.5845 43.3235 45.6098C43.3209 45.6098 43.3181 45.6099 43.3151 45.61C43.2546 45.6113 43.1236 45.6141 43.068 45.5933C43.0611 45.5776 42.3817 43.3325 42.3767 43.316C42.2318 42.8369 41.8625 42.4586 41.3895 42.303C37.4859 41.0195 38.3186 41.3755 36.9175 40.5159C36.9007 40.5055 36.8908 40.4871 36.8919 40.4676L36.927 39.8701C36.9942 38.7207 35.8269 37.9093 34.7813 38.375C32.9079 39.2078 32.098 39.5815 31.8767 39.6589C30.6145 39.5773 30.5847 39.6056 30.582 39.5271L30.5748 39.314C30.558 38.8242 30.3062 38.3677 29.9019 38.0937C29.4975 37.8193 28.9822 37.7557 28.5236 37.9231C28.508 37.9285 28.4836 37.9281 28.466 37.9082L26.49 35.6615C26.477 35.647 26.4732 35.6266 26.4797 35.6086L27.214 33.5421C27.2205 33.5245 27.2358 33.5114 27.2537 33.5076L30.1311 32.94C30.7964 32.8085 31.2893 32.2651 31.3579 31.5871C31.884 26.3732 31.9244 27.8174 31.3271 25.0832C31.3084 24.9927 31.3145 25.028 33.305 24.7237C33.3233 24.7214 33.3408 24.7279 33.3527 24.7413L34.5207 26.0889C34.9953 26.6365 35.7964 26.7745 36.4254 26.4181L38.0116 25.5193C38.6437 25.161 38.9389 24.3983 38.7146 23.7054L38.2263 22.198C38.1958 22.1076 38.2317 22.1355 42.1177 21.4848C42.1868 21.4725 42.1051 21.305 43.264 24.7988C43.5158 25.5569 44.2898 25.9911 45.0638 25.8091L47.1337 25.3223C47.8958 25.143 48.2399 24.4861 48.3033 24.0507C48.3391 23.9924 48.2453 23.9951 50.5577 24.6329C51.1731 24.8026 51.8361 24.5662 52.2068 24.0442L52.768 23.255C52.7935 23.2186 52.8454 23.2275 52.8603 23.2669C54.1523 26.6622 54.1066 26.8351 54.7768 27.1716L56.9333 28.255C56.9382 28.2575 56.9431 28.26 56.9481 28.2623C57.3103 28.4346 57.7441 28.285 57.9239 27.9235C58.1063 27.5571 57.9586 27.1114 57.5936 26.9282C57.0115 26.6358 55.579 25.916 55.4364 25.8443C55.3006 25.5968 54.9538 24.6141 54.2397 22.7373C53.8044 21.594 52.2744 21.397 51.5667 22.3931L51.0056 23.1822C50.9926 23.2002 50.9697 23.2083 50.9487 23.2025L48.7534 22.597C48.3456 22.4847 47.9054 22.5479 47.5453 22.771C47.1283 23.0297 46.967 23.3612 46.8487 23.7774C46.8487 23.8135 46.8346 23.8694 46.7972 23.8782C44.6316 24.3872 44.69 24.4048 44.6652 24.3301L43.5772 21.0513C43.3377 20.3292 42.6216 19.8962 41.8747 20.0215L38.0249 20.6661C37.1018 20.8206 36.533 21.7646 36.8221 22.6575L37.3104 24.1645C37.3322 24.232 37.3581 24.1864 35.6998 25.1261C35.6781 25.1384 35.6506 25.1338 35.6342 25.115L34.4662 23.7671C34.1206 23.3681 33.6033 23.1776 33.083 23.2573L31.1489 23.5528C30.7323 23.6165 30.3566 23.8533 30.1182 24.2021C29.8798 24.5508 29.7947 24.9881 29.8851 25.4013L30.3017 27.308C30.2895 27.5395 30.1857 28.4973 29.8889 31.4372C29.8828 31.4986 30.04 31.4461 26.9691 32.052C26.4431 32.1559 26.0044 32.5357 25.8236 33.0431L25.0889 35.1096C24.9019 35.6366 25.0145 36.2245 25.3834 36.6438L27.3594 38.8909C27.7786 39.3669 28.4332 39.5347 29.0283 39.3174C29.0634 39.3048 29.0977 39.3297 29.0989 39.3653L29.1065 39.5784C29.1332 40.3714 29.7481 41.008 30.5363 41.0586C32.5668 41.1904 31.5929 41.4146 35.3786 39.7314C35.4149 39.7149 35.4553 39.7421 35.4527 39.7831C35.4195 40.3503 35.2604 41.2391 36.1492 41.7829C37.7277 42.7514 36.7657 42.3436 40.9302 43.713C40.9462 43.7184 40.9592 43.7314 40.9641 43.7479L41.647 46.0026C41.9018 46.8435 42.553 47.0918 43.4059 47.0918C43.4803 47.0918 43.4239 46.786 44.0163 52.8538C44.0911 53.6191 44.7243 54.2147 45.4891 54.2396Z" fill="#BB3232"/>
<path d="M69.7427 41.8427C67.5614 43.887 67.4691 43.8809 67.3417 44.4642C66.4117 48.7149 66.1095 50.1491 66.0222 50.4634C66 50.4952 62.5058 55.5565 62.4673 55.5596C57.0569 55.9781 57.2773 55.8738 56.7913 56.3035C54.2141 58.5612 54.0944 58.5444 53.9887 59.2412C53.7419 60.8715 53.632 61.7105 53.571 61.9397C53.571 61.9397 49.0948 66.4966 49.0898 66.5016C49.0692 66.5223 49.0361 66.5227 49.0155 66.502L45.8416 63.3643C45.7665 63.291 45.681 63.4133 49.0719 60.7638C49.5766 60.3695 49.7834 59.6988 49.5915 59.0882L49.3016 58.0155C49.2914 57.9778 49.2785 57.9416 49.2632 57.907C49.1176 57.5785 48.7517 57.3964 48.3956 57.4939C48.0019 57.6012 47.7696 58.009 47.8764 58.4041C47.8855 58.4375 48.1724 59.5014 48.1831 59.5343C48.19 59.5554 48.1831 59.5788 48.1655 59.5926L44.9394 62.1137C44.2097 62.684 44.1471 63.7701 44.8055 64.4217L47.9794 67.5594C48.5798 68.1531 49.5495 68.1458 50.1408 67.5437L54.6208 62.9829C55.1896 62.4034 55.0229 61.8167 55.449 59.4627C55.6279 59.2622 56.363 58.6463 57.7584 57.4241C58.0937 57.362 59.4338 57.2819 62.5802 57.0386C63.0402 57.0033 63.4549 56.7645 63.7181 56.3843L67.2368 51.3069C67.4565 51.0214 67.3882 51.1628 68.7836 44.7827C68.9351 44.606 69.5657 44.0377 70.7497 42.9277C70.7657 42.9128 70.7808 42.8973 70.7951 42.8813C71.0489 42.5983 71.0492 42.1625 70.786 41.8791C70.5079 41.5798 70.041 41.5633 69.7427 41.8427Z" fill="#BB3232"/>
<path d="M74.6308 34.7383C74.5396 33.9652 73.8866 33.3827 73.1122 33.3827H72.0242C71.7027 33.165 70.5487 32.1421 67.7869 29.7812C67.1883 29.2695 66.972 29.4044 62.9304 29.6011C62.719 29.516 61.9675 29.112 60.3455 28.2746C60.3356 28.2695 60.3256 28.2646 60.3156 28.2599C59.9589 28.0952 59.5328 28.2409 59.3514 28.5954C59.1649 28.9595 59.3079 29.4067 59.6707 29.5942C62.5351 31.0735 62.4776 31.1088 63.0013 31.0827C65.4458 30.9639 66.4845 30.8869 66.8324 30.9133C71.2331 34.6746 71.2849 34.8666 71.954 34.8666C73.1217 34.8663 73.1553 34.8364 73.1644 34.913C73.169 34.9525 73.5356 37.9641 73.5074 37.9917L71.8503 39.6382C71.8403 39.6482 71.8306 39.6583 71.8213 39.6685C71.394 40.1395 71.7295 40.9072 72.3691 40.9072C72.7677 40.9072 72.7563 40.824 74.5454 39.0469C74.8341 38.7602 74.9997 38.362 74.9997 37.9542C75.0001 37.8273 75.0211 38.0431 74.6308 34.7383Z" fill="#BB3232"/>
<path d="M47.7776 55.9666C47.4009 56.0928 46.9945 55.8968 46.8544 55.5275L47.8764 58.4041C47.7696 58.009 48.0019 57.6012 48.3956 57.4939C48.7517 57.3964 49.1176 57.5785 49.2632 57.907L48.2445 55.0284C48.3734 55.417 48.1644 55.837 47.7776 55.9666Z" fill="#BB3232"/>
<path d="M70.786 41.8791C71.0492 42.1625 71.0489 42.5983 70.7951 42.8813L74.5454 39.0469C72.7563 40.824 72.7677 40.9072 72.3691 40.9072C71.7295 40.9072 71.394 40.1395 71.8213 39.6685L69.7427 41.8427C70.041 41.5633 70.5079 41.5798 70.786 41.8791Z" fill="#BB3232"/>
<path d="M57.9239 27.9235C57.7441 28.285 57.3103 28.4346 56.9481 28.2623L59.6707 29.5942C59.3079 29.4067 59.1649 28.9595 59.3514 28.5954C59.5328 28.2409 59.9589 28.0952 60.3156 28.2599L57.5936 26.9282C57.9586 27.1114 58.1063 27.5571 57.9239 27.9235Z" fill="#BB3232"/>
<path d="M47.8489 53.8364L48.2445 55.0284L49.2632 57.907C49.2785 57.9416 49.2914 57.9778 49.3016 58.0155L49.5915 59.0882C49.7834 59.6988 49.5766 60.3695 49.0719 60.7638C45.681 63.4133 45.7665 63.291 45.8416 63.3643L49.0155 66.502C49.0361 66.5227 49.0692 66.5223 49.0898 66.5016L53.571 61.9397C53.632 61.7105 53.7419 60.8715 53.9887 59.2412C54.0944 58.5444 54.2141 58.5612 56.7913 56.3035C57.2773 55.8738 57.0569 55.9781 62.4673 55.5596C62.5058 55.5565 66 50.4952 66.0222 50.4634C66.1095 50.1491 66.4117 48.7149 67.3417 44.4642C67.4691 43.8809 67.5614 43.887 69.7427 41.8427L71.8213 39.6685C71.8306 39.6583 71.8403 39.6482 71.8503 39.6382L73.5074 37.9917C73.5356 37.9641 73.169 34.9525 73.1644 34.913C73.1553 34.8364 73.1217 34.8663 71.954 34.8666C71.2849 34.8666 71.2331 34.6746 66.8324 30.9133C66.4845 30.8869 65.4458 30.9639 63.0013 31.0827C62.4776 31.1088 62.5351 31.0735 59.6707 29.5942L56.9481 28.2623C56.9431 28.26 56.9382 28.2575 56.9333 28.255L54.7768 27.1716C54.1066 26.8351 54.1523 26.6622 52.8603 23.2669C52.8454 23.2275 52.7935 23.2186 52.768 23.255L52.2068 24.0442C51.8361 24.5662 51.1731 24.8026 50.5577 24.6329C48.2453 23.9951 48.3391 23.9924 48.3033 24.0507C48.2399 24.4861 47.8958 25.143 47.1337 25.3223L45.0638 25.8091C44.2898 25.9911 43.5158 25.5569 43.264 24.7988C42.1051 21.305 42.1868 21.4725 42.1177 21.4848C38.2317 22.1355 38.1958 22.1076 38.2263 22.198L38.7146 23.7054C38.9389 24.3983 38.6437 25.161 38.0116 25.5193L36.4254 26.4181C35.7964 26.7745 34.9953 26.6365 34.5207 26.0889L33.3527 24.7413C33.3408 24.7279 33.3233 24.7214 33.305 24.7237C31.3145 25.028 31.3084 24.9927 31.3271 25.0832C31.9244 27.8174 31.884 26.3732 31.3579 31.5871C31.2893 32.2651 30.7964 32.8085 30.1311 32.94L27.2537 33.5076C27.2358 33.5114 27.2205 33.5245 27.214 33.5421L26.4797 35.6086C26.4732 35.6266 26.477 35.647 26.49 35.6615L28.466 37.9082C28.4836 37.9281 28.508 37.9285 28.5236 37.9231C28.9822 37.7557 29.4975 37.8193 29.9019 38.0937C30.3062 38.3677 30.558 38.8242 30.5748 39.314L30.582 39.5271C30.5847 39.6056 30.6145 39.5773 31.8767 39.6589C32.098 39.5815 32.9079 39.2078 34.7813 38.375C35.8269 37.9093 36.9942 38.7207 36.927 39.8701L36.8919 40.4676C36.8908 40.4871 36.9007 40.5055 36.9175 40.5159C38.3186 41.3755 37.4859 41.0195 41.3895 42.303C41.8625 42.4586 42.2318 42.8369 42.3767 43.316C42.3817 43.3325 43.0611 45.5776 43.068 45.5933C43.1236 45.6141 43.2546 45.6113 43.3151 45.61L43.3235 45.6098C44.2257 45.5845 44.8536 46.2299 44.9284 46.9945L45.4857 52.7089C45.4933 52.7848 45.5483 52.7572 46.4474 52.7863C47.0845 52.807 47.6475 53.229 47.8489 53.8364Z" fill="#BB3232"/>
<path d="M58 18C51.9346 18 47 22.9119 47 28.9492C47 36.5376 58.0108 49.5 58.0108 49.5C58.0108 49.5 69 36.1644 69 28.9492C69 22.9119 64.0655 18 58 18ZM61.3189 32.1552C60.4038 33.0659 59.202 33.5214 58 33.5214C56.7982 33.5214 55.596 33.0659 54.6813 32.1552C52.8512 30.3337 52.8512 27.3698 54.6813 25.5482C55.5674 24.6657 56.7463 24.1796 58 24.1796C59.2537 24.1796 60.4324 24.6659 61.3189 25.5482C63.149 27.3698 63.149 30.3337 61.3189 32.1552Z" fill="white"/>
</g>
<defs>
<clipPath id="clip0">
<rect width="50" height="50" fill="white" transform="translate(25 18)"/>
</clipPath>
</defs>
</svg>
