<svg width="80" height="80" viewBox="0 0 80 80" fill="none" xmlns="http://www.w3.org/2000/svg">
<path d="M27.77 38.7754L35.3887 46.5963C36.0965 47.3084 37.2403 47.3328 37.9775 46.6508L52.5357 32.9194" stroke="white" stroke-width="3" stroke-linecap="round"/>
<path d="M40.1229 62.6953C27.5683 62.6953 17.3677 52.4772 17.3677 39.9393C17.3677 27.4016 27.5682 17.1841 40.1229 17.1841C52.6911 17.1841 62.8789 27.372 62.8789 39.9393C62.8789 52.5068 52.691 62.6953 40.1229 62.6953Z" stroke="white" stroke-width="2"/>
<path d="M49.7936 72.5362L49.7795 72.5355L49.7654 72.535C49.0772 72.5099 48.3964 72.6877 47.8079 73.0478L47.7859 73.0613L47.7643 73.0755L42.4793 76.5652C40.9754 77.5582 39.024 77.5582 37.5201 76.5651L32.2487 73.0842C32.2463 73.0826 32.2438 73.0809 32.2413 73.0793C31.6999 72.7157 31.0616 72.518 30.4055 72.5153H30.3995H30.3077H30.2663L30.2249 72.5176L23.8445 72.8704C22.0594 72.969 20.3851 72.0016 19.5792 70.4056L16.7244 64.7522C16.724 64.7515 16.7237 64.7507 16.7233 64.75C16.4034 64.1127 15.8862 63.5956 15.2478 63.276C15.2472 63.2757 15.2466 63.2753 15.246 63.275L9.58572 60.4334C7.98446 59.6295 7.01266 57.9523 7.11157 56.1633L7.46374 49.7937L7.46452 49.7796L7.46504 49.7654C7.49013 49.0753 7.31064 48.3948 6.95148 47.8079L6.93803 47.7859L6.92382 47.7644L3.43432 42.479C2.44148 40.9752 2.44148 39.0241 3.43432 37.5203L6.91779 32.244C7.3276 31.6398 7.51969 30.9139 7.46264 30.1863L7.111 23.8259C7.01231 22.0408 7.97978 20.3665 9.57572 19.5606L15.2292 16.7058C15.2299 16.7054 15.2306 16.705 15.2314 16.7047C15.8683 16.3849 16.3851 15.8682 16.7047 15.2312C16.7051 15.2305 16.7054 15.2299 16.7058 15.2292L19.5606 9.57572C20.3665 7.97978 22.0408 7.01231 23.8259 7.111L30.2063 7.46374L30.2217 7.4646L30.2372 7.46513C30.9234 7.48888 31.6028 7.31135 32.1909 6.95222L32.2135 6.9384L32.2356 6.92379L37.5203 3.4345C39.0241 2.44158 40.9753 2.44154 42.4791 3.43441L47.7558 6.91815C48.36 7.32727 49.0855 7.51974 49.8137 7.46264L56.1736 7.11101C57.9587 7.01231 59.6329 7.97967 60.4388 9.57547L63.2942 15.2292C63.2945 15.2297 63.2947 15.2302 63.295 15.2307C63.6145 15.8676 64.1311 16.3844 64.7679 16.7043C64.7689 16.7048 64.7698 16.7053 64.7708 16.7058L70.424 19.5607C72.0197 20.3665 72.9871 22.0406 72.8886 23.8256L72.5362 30.2064L72.5355 30.2204L72.535 30.2345C72.5098 30.9241 72.6895 31.6037 73.0466 32.1894L73.0606 32.2124L73.0755 32.2349L76.5653 37.5201C77.5583 39.024 77.5583 40.9753 76.5653 42.4792L73.0803 47.7571C72.6728 48.3604 72.4803 49.0847 72.5374 49.8136L72.8885 56.1737C72.9871 57.9587 72.0197 59.6327 70.4239 60.4386L64.7708 63.2935C64.7703 63.2938 64.7697 63.2941 64.7691 63.2944C64.1307 63.6147 63.6143 64.133 63.2952 64.769C63.2949 64.7696 63.2945 64.7702 63.2942 64.7708L60.4388 70.4242C59.6328 72.0198 57.9588 72.9871 56.1739 72.8886L49.7936 72.5362Z" stroke="white" stroke-width="3"/>
</svg>
