<svg width="272" height="941" viewBox="0 0 272 941" fill="none" xmlns="http://www.w3.org/2000/svg">
<mask id="mask0" mask-type="alpha" maskUnits="userSpaceOnUse" x="0" y="1" width="272" height="940">
<rect y="1" width="272" height="940" fill="#C4C4C4"/>
</mask>
<g mask="url(#mask0)">
</g>
<g clip-path="url(#clip0)">
<path d="M10.7347 23.5247L-57.6708 72.9419V142.834M10.7347 23.5247L10.7474 93.4129L-57.6708 142.834M10.7347 23.5247L-57.6644 -25.9909M10.7347 23.5247L-57.6708 73.0448L-57.6583 142.834M10.7347 23.5247L79.134 -25.9909M10.7347 23.5247L79.1404 73.0448M-57.6708 142.834L-57.6582 212.722M-57.6708 142.834L10.7284 93.3186M-57.6708 142.834L10.7347 192.354M-57.6644 -25.9909L-57.6708 -25.9954M-57.6644 -25.9909V-26L-57.6708 -25.9954M-57.6708 -25.9954L-57.6772 -26V-25.9909L-57.6708 -25.9954ZM79.1404 142.834L10.7347 192.251V262.144M79.1404 142.834L79.1531 212.722L10.7347 262.144M79.1404 142.834L10.7412 93.3186M79.1404 142.834L10.7347 192.354M79.1404 142.834L147.559 93.4129L147.546 23.5247M79.1404 142.834V72.9419L147.546 23.5247M79.1404 142.834L147.54 93.3186M79.1404 142.834L147.546 192.354M10.7347 262.144L-57.6708 311.561V381.453M10.7347 262.144L10.7474 332.032L-57.6708 381.453M10.7347 262.144L-57.6644 212.628M10.7347 262.144L-57.6708 311.664L-57.6583 381.453M10.7347 262.144L79.134 212.628M10.7347 262.144L79.1404 311.664M10.7347 192.354L10.7473 262.144L-57.6708 212.722V142.83M10.7412 93.3186L10.7347 93.314M10.7412 93.3186V93.3094L10.7347 93.314M10.7347 93.314L10.7284 93.3094V93.3186M10.7347 93.314L10.7284 93.3186M-57.6708 381.453L-57.6582 451.341M-57.6708 381.453L10.7284 331.937M-57.6708 381.453L10.7347 430.973M-57.6644 212.628L-57.6708 212.623M-57.6644 212.628V212.619L-57.6708 212.623M-57.6708 212.623L-57.6772 212.619V212.628L-57.6708 212.623ZM147.546 262.144L79.1404 311.561V381.453M147.546 262.144L147.559 332.032L79.1404 381.453M147.546 262.144L79.1467 212.628M147.546 262.144L79.1404 311.664M147.546 262.144L215.964 212.722L215.952 142.834M147.546 262.144V192.251L215.952 142.834M147.546 262.144L215.945 212.628M147.546 262.144L215.952 311.664M79.1404 381.453L10.7347 430.87V500.762M79.1404 381.453L79.1531 451.341L10.7347 500.762M79.1404 381.453L10.7412 331.937M79.1404 381.453L10.7347 430.973M79.1404 381.453L147.54 331.937M79.1404 381.453L147.546 430.973M79.1404 311.664L79.153 381.453L10.7347 332.032V262.14M79.1467 212.628L79.1404 212.623M79.1467 212.628V212.619L79.1404 212.623M79.1404 212.623L79.134 212.619V212.628M79.1404 212.623L79.134 212.628M10.7347 500.762L-57.6708 550.18V620.072M10.7347 500.762L10.7474 570.651L-57.6708 620.072M10.7347 500.762L-57.6644 451.247M10.7347 500.762L-57.6708 550.282L-57.6583 620.072M10.7347 500.762L79.134 451.247M10.7347 500.762L79.1404 550.282M10.7347 430.973L10.7473 500.762L-57.6708 451.341V381.449M10.7412 331.937L10.7347 331.933M10.7412 331.937V331.928L10.7347 331.933M10.7347 331.933L10.7284 331.928V331.937M10.7347 331.933L10.7284 331.937M215.952 381.453L147.546 430.87V500.762M215.952 381.453L215.964 451.341L147.546 500.762M215.952 381.453L147.552 331.937M215.952 381.453L147.546 430.973M215.952 381.453L284.37 332.032L284.357 262.144M215.952 381.453V311.561L284.357 262.144M215.952 381.453L284.351 331.937M215.952 381.453L284.357 430.973L284.37 500.762L215.952 451.341V381.449M147.546 500.762L79.1404 550.18V620.072M147.546 500.762L147.559 570.651L79.1404 620.072M147.546 500.762L79.1467 451.247M147.546 500.762L79.1404 550.282M147.546 500.762L215.945 451.247M147.546 500.762L215.952 550.282M147.546 430.973L147.558 500.762L79.1404 451.341V381.449M147.552 331.937L147.546 331.933M147.552 331.937V331.928L147.546 331.933M147.546 331.933L147.54 331.928V331.937M147.546 331.933L147.54 331.937M147.546 23.5247L79.1467 -25.9909M147.546 23.5247L79.1404 73.0448M147.546 23.5247L215.945 -25.9909M147.546 23.5247L215.952 73.0448M79.1404 73.0448L79.153 142.834L10.7347 93.4129V23.5207M79.1467 -25.9909L79.1404 -25.9954M79.1467 -25.9909V-26L79.1404 -25.9954M79.1404 -25.9954L79.134 -26V-25.9909M79.1404 -25.9954L79.134 -25.9909M284.357 23.5247L215.952 72.9419V142.834M284.357 23.5247L284.37 93.4129L215.952 142.834M284.357 23.5247L215.958 -25.9909M284.357 23.5247L215.952 73.0448M215.952 142.834L147.552 93.3186M215.952 142.834L147.546 192.354M215.952 142.834L284.351 93.3186M215.952 142.834L284.357 192.354L284.37 262.144L215.952 212.722V142.83M215.952 73.0448L215.964 142.834L147.546 93.4129V23.5207M215.958 -25.9909L215.952 -25.9954M215.958 -25.9909V-26L215.952 -25.9954M215.952 -25.9954L215.945 -26V-25.9909M215.952 -25.9954L215.945 -25.9909M147.546 192.354L147.558 262.144L79.1404 212.722V142.83M147.552 93.3186L147.546 93.314M147.552 93.3186V93.3094L147.546 93.314M147.546 93.314L147.54 93.3094V93.3186M147.546 93.314L147.54 93.3186M284.357 192.251V262.144M284.357 262.144L215.958 212.628M284.357 262.144L215.952 311.664M284.357 93.314L284.364 93.3186V93.3094L284.357 93.314ZM284.357 93.314L284.351 93.3094V93.3186M284.357 93.314L284.351 93.3186M284.357 23.5207V93.4129M215.952 311.664L215.964 381.453L147.546 332.032V262.14M215.958 212.628L215.952 212.623M215.958 212.628V212.619L215.952 212.623M215.952 212.623L215.945 212.619V212.628M215.952 212.623L215.945 212.628M284.357 262.14V332.032M284.357 430.87V500.762M284.357 500.762L215.952 550.18V620.072M284.357 500.762L284.37 570.651L215.952 620.072M284.357 500.762L215.958 451.247M284.357 500.762L215.952 550.282M284.357 331.933L284.364 331.937V331.928L284.357 331.933ZM284.357 331.933L284.351 331.928V331.937M284.357 331.933L284.351 331.937M-57.6708 620.072L-57.6582 689.96M-57.6708 620.072L10.7284 570.556M-57.6708 620.072L10.7347 669.592M-57.6644 451.247L-57.6708 451.242M-57.6644 451.247V451.238L-57.6708 451.242M-57.6708 451.242L-57.6772 451.238V451.247L-57.6708 451.242ZM79.1404 620.072L10.7347 669.489V739.381M79.1404 620.072L79.1531 689.96L10.7347 739.381M79.1404 620.072L10.7412 570.556M79.1404 620.072L10.7347 669.592M79.1404 620.072L147.54 570.556M79.1404 620.072L147.546 669.592M79.1404 550.282L79.153 620.072L10.7347 570.651V500.758M79.1467 451.247L79.1404 451.242M79.1467 451.247V451.238L79.1404 451.242M79.1404 451.242L79.134 451.238V451.247M79.1404 451.242L79.134 451.247M10.7347 739.381L-57.6708 788.798V858.691M10.7347 739.381L10.7474 809.269L-57.6708 858.691M10.7347 739.381L-57.6644 689.866M10.7347 739.381L-57.6708 788.901L-57.6583 858.691M10.7347 739.381L79.134 689.866M10.7347 739.381L79.1404 788.901M10.7347 669.592L10.7473 739.381L-57.6708 689.96V620.068M10.7412 570.556L10.7347 570.552M10.7412 570.556V570.547L10.7347 570.552M10.7347 570.552L10.7284 570.547V570.556M10.7347 570.552L10.7284 570.556M215.952 620.072L147.546 669.489V739.381M215.952 620.072L215.964 689.96L147.546 739.381M215.952 620.072L147.552 570.556M215.952 620.072L147.546 669.592M215.952 620.072L284.351 570.556M215.952 620.072L284.357 669.592L284.37 739.381L215.952 689.96V620.068M147.546 739.381L79.1404 788.798V858.691M147.546 739.381L147.559 809.269L79.1404 858.691M147.546 739.381L79.1467 689.866M147.546 739.381L79.1404 788.901M147.546 739.381L215.945 689.866M147.546 739.381L215.952 788.901M147.546 669.592L147.558 739.381L79.1404 689.96V620.068M147.552 570.556L147.546 570.552M147.552 570.556V570.547L147.546 570.552M147.546 570.552L147.54 570.547V570.556M147.546 570.552L147.54 570.556M-57.6708 858.691L-57.6582 928.579M-57.6708 858.691L10.7284 809.175M-57.6708 858.691L10.7347 908.211M-57.6644 689.866L-57.6708 689.861M-57.6644 689.866V689.857L-57.6708 689.861M-57.6708 689.861L-57.6772 689.857V689.866L-57.6708 689.861ZM79.1404 858.691L10.7347 908.108V978L79.1531 928.579L79.1404 858.691ZM79.1404 858.691L10.7412 809.175M79.1404 858.691L10.7347 908.211M79.1404 858.691L147.54 809.175M79.1404 858.691L147.546 908.211M10.7347 908.211L10.7473 978L-57.6708 928.579V858.687M10.7412 809.175L10.7347 809.17M10.7412 809.175V809.166L10.7347 809.17M10.7347 809.17L10.7284 809.166V809.175M10.7347 809.17L10.7284 809.175M79.1404 788.901L79.153 858.691L10.7347 809.269V739.377M79.1467 689.866L79.1404 689.861M79.1467 689.866V689.857L79.1404 689.861M79.1404 689.861L79.134 689.857V689.866M79.1404 689.861L79.134 689.866M284.357 739.381L215.952 788.798V858.691M284.357 739.381L284.37 809.269L215.952 858.691M284.357 739.381L215.958 689.866M284.357 739.381L215.952 788.901M284.357 739.381V669.489M215.952 858.691L147.546 908.108V978L215.964 928.579L215.952 858.691ZM215.952 858.691L147.552 809.175M215.952 858.691L147.546 908.211M215.952 858.691L284.351 809.175M215.952 858.691L284.357 908.211L284.37 978L215.952 928.579V858.687M215.952 788.901L215.964 858.691L147.546 809.269V739.377M215.958 689.866L215.952 689.861M215.958 689.866V689.857L215.952 689.861M215.952 689.861L215.945 689.857V689.866M215.952 689.861L215.945 689.866M147.546 908.211L147.558 978L79.1404 928.579V858.687M147.552 809.175L147.546 809.17M147.552 809.175V809.166L147.546 809.17M147.546 809.17L147.54 809.166V809.175M147.546 809.17L147.54 809.175M284.357 908.108V978M284.357 809.17L284.364 809.175V809.166L284.357 809.17ZM284.357 809.17L284.351 809.166V809.175M284.357 809.17L284.351 809.175M215.952 550.282L215.964 620.072L147.546 570.651V500.758M215.958 451.247L215.952 451.242M215.958 451.247V451.238L215.952 451.242M215.952 451.242L215.945 451.238V451.247M215.952 451.242L215.945 451.247M284.357 500.758V570.651M284.357 570.552L284.364 570.556V570.547L284.357 570.552ZM284.357 570.552L284.351 570.547V570.556M284.357 570.552L284.351 570.556M284.357 739.377V809.269" stroke="url(#paint0_radial)" stroke-width="2"/>
</g>
<defs>
<radialGradient id="paint0_radial" cx="0" cy="0" r="1" gradientUnits="userSpaceOnUse" gradientTransform="translate(136 489) rotate(90) scale(451 135.971)">
<stop offset="0.328125" stop-color="#AF0E0E" stop-opacity="0.7"/>
<stop offset="1" stop-color="#AF0E0E" stop-opacity="0"/>
</radialGradient>
<clipPath id="clip0">
<rect width="272" height="941" fill="white"/>
</clipPath>
</defs>
</svg>
